<?xml version="1.0" encoding="UTF-8"?><svg id="Layer_1" xmlns="http://www.w3.org/2000/svg" xmlns:xlink="http://www.w3.org/1999/xlink" viewBox="0 0 32 32"><defs><style>.cls-1{fill:none;}.cls-2{clip-path:url(#clippath);}.cls-3{fill:#0069ff;}.cls-4{fill:#009145;}.cls-5,.cls-6{fill:#fff;}.cls-7{fill:#d40000;}.cls-8{fill:#646464;}.cls-6{stroke:#646464;stroke-miterlimit:10;stroke-width:.75px;}</style><clipPath id="clippath"><rect class="cls-1" x="1.76" y=".66" width="139" height="30.41"/></clipPath></defs><g class="cls-2"><path class="cls-5" d="M6.7,27.71c-1.75-1.23-3.22-2.85-4.28-4.7l1.09-.47c.23-.1,.41-.29,.5-.53,.09-.24,.07-.5-.04-.73-.79-1.61-1.18-3.46-1.17-5.52l9.93-.03c.44,0,.81-.32,.89-.75,.4-2.34,2.42-4.04,4.8-4.04,.1,0,.2,0,.3,0,1.59,.09,3.07,1,3.87,2.37,1.27,2.17,.71,4.92-1.3,6.4-.84,.62-1.83,.94-2.88,.94s-2.16-.37-3.02-1.05c-.16-.13-.36-.19-.56-.19-.25,0-.49,.1-.66,.29l-7.46,8.01Z"/><g><path class="cls-4" d="M14.9,9.05c.2,.24,.54,.33,.83,.22,1.89-.7,3.98-.51,5.72,.52,1.74,1.03,2.9,2.77,3.19,4.78,.05,.37,.37,.64,.74,.64h0l4.24-.02c.21,0,.41-.09,.55-.24,.14-.15,.21-.36,.2-.57,0,0,0,0,0,0-.1-1.16-.33-2.31-.68-3.4-.07-.2-.21-.37-.41-.45-.19-.09-.42-.09-.61,0l-.76,.34c-.51-1.34-1.23-2.58-2.13-3.69l.65-.77c.24-.29,.23-.72-.03-.99-1.57-1.68-3.53-3-5.68-3.81h0c-.21-.08-.45-.06-.64,.05-.2,.11-.33,.31-.36,.53l-.15,.96c-1.25-.41-2.54-.64-3.85-.66l-.25-1.22c-.08-.36-.4-.61-.77-.6-1.65,.08-3.25,.43-4.76,1.02-.22,.09-.39,.28-.45,.52-.06,.23,0,.48,.16,.67l5.26,6.19Z"/><path class="cls-3" d="M30.17,16.16c-.15-.16-.36-.25-.57-.25h-4.34c-.38,.02-.71,.31-.76,.69-.26,2.07-1.41,3.88-3.17,4.96-1.76,1.08-3.89,1.3-5.84,.58-.31-.11-.65-.02-.86,.23l-5.27,6.44c-.16,.19-.21,.45-.15,.69,.06,.24,.24,.44,.47,.53,1.56,.61,3.2,.95,4.88,1.02,.01,0,.02,0,.03,0,.37,0,.68-.26,.75-.63l.23-1.26c1.33-.04,2.65-.28,3.92-.72l.17,1c.04,.23,.18,.43,.38,.54,.2,.12,.45,.14,.66,.05,2.19-.85,4.17-2.23,5.75-3.99,.26-.29,.26-.73,0-1.02l-.69-.8c.9-1.15,1.62-2.44,2.12-3.83l.78,.34c.2,.09,.43,.09,.63,0,.2-.09,.35-.26,.41-.47,.35-1.14,.56-2.33,.64-3.53,0,0,0,0,0,0s0,0,0,0h0s0,0,0-.01c0-.21-.07-.41-.21-.57Z"/><path class="cls-8" d="M14.83,19.99c.07,0,.15,.02,.21,.07,.99,.78,2.18,1.17,3.37,1.17,1.13,0,2.26-.35,3.21-1.05,2.21-1.63,2.9-4.69,1.46-7.14-.91-1.54-2.55-2.55-4.33-2.65-.11,0-.22,0-.33,0v1.14c.09,0,.18,0,.26,0,1.4,.08,2.71,.88,3.42,2.09,1.12,1.91,.63,4.34-1.15,5.65-.74,.54-1.62,.83-2.54,.83s-1.91-.33-2.67-.93c-.26-.2-.58-.32-.91-.32-.41,0-.8,.17-1.08,.47l-7.12,7.64c-1.33-1.01-2.49-2.26-3.38-3.68l.49-.21c.37-.16,.67-.47,.81-.85,.14-.38,.12-.81-.06-1.18-.68-1.38-1.05-2.96-1.1-4.7l9.35-.03c.72,0,1.33-.52,1.45-1.23,.35-2.06,2.13-3.56,4.24-3.56v-1.14s0,0,0,0c-2.68,0-4.92,1.92-5.36,4.51-.03,.16-.17,.28-.33,.28l-10.08,.03c-.18,0-.41,.14-.41,.33-.05,2.08,.31,4.15,1.22,6.02,.09,.18,.01,.4-.17,.48l-1.33,.58c-.09,.04-.15,.11-.18,.2-.03,.09-.02,.19,.02,.27,1.15,2.1,2.78,3.9,4.75,5.24,.06,.04,.12,.06,.19,.06,.09,0,.18-.04,.24-.11l7.6-8.16c.07-.07,.15-.11,.24-.11Z"/><path class="cls-7" d="M4.5,9.22l1.73,.68c.14,.06,.2,.22,.12,.34-.65,.98-1.12,2.05-1.38,3.19-.02,.1,0,.2,.07,.28,.07,.08,.17,.13,.28,.13l5.82-.06c.15,0,.27-.09,.31-.22,.41-1.29,1.18-2.44,2.23-3.32,.07-.06,.11-.14,.11-.23,0-.09-.04-.18-.1-.24l-4.98-4.84c-.11-.11-.45-.14-.59-.06-1.63,.94-2.79,2.34-3.83,3.86-.06,.08-.07,.18-.04,.28,.03,.09,.14,.19,.24,.22Z"/></g></g><g><path class="cls-6" d="M22.53,13.32c-.8-1.37-2.29-2.28-3.87-2.37-.1,0-.2,0-.3,0-2.38,0-4.4,1.7-4.8,4.04-.07,.43-.45,.75-.89,.75l-9.93,.03c-.02,2.06,.38,3.92,1.17,5.52,.11,.23,.13,.49,.04,.73-.09,.23-.27,.43-.5,.53l-1.09,.47c1.06,1.86,2.53,3.47,4.28,4.7l7.46-8.01c.17-.18,.41-.29,.66-.29,.2,0,.4,.07,.56,.19,.86,.68,1.93,1.05,3.02,1.05s2.04-.33,2.88-.94c2.01-1.48,2.57-4.23,1.3-6.4Z"/><rect class="cls-1" x="1.7" y=".66" width="139" height="30.41"/></g></svg>