<?xml version="1.0" encoding="UTF-8"?><svg id="Layer_1" xmlns="http://www.w3.org/2000/svg" viewBox="0 0 179.3 31.34"><defs><style>.cls-1{fill:none;}.cls-2{fill:#f9f9f9;}.cls-3{fill:#0069ff;}.cls-4{fill:#ffc414;}.cls-4,.cls-5,.cls-6{stroke:#f9f9f9;stroke-linecap:round;stroke-miterlimit:10;stroke-width:.31px;}.cls-5{fill:#d40000;}.cls-6{fill:#009145;}</style></defs><rect class="cls-1" x="24.03" y="1.4" width="131.24" height="28.71"/><g><path class="cls-5" d="M46.24,15.22c-.35,0-.65-.26-.7-.61-.27-1.88-1.36-3.52-2.99-4.49-1.64-.97-3.6-1.15-5.38-.49-.28,.1-.59,.02-.78-.2l-4.94-5.81c-.15-.17-.2-.41-.15-.63,.05-.22,.21-.4,.42-.48,1.42-.56,2.92-.88,4.47-.96,.35-.02,.65,.22,.73,.56l.24,1.15c1.23,.03,2.44,.24,3.61,.62l.14-.9c.03-.21,.16-.39,.34-.5,.18-.11,.4-.13,.6-.05h0c2.02,.76,3.87,2,5.34,3.58,.24,.26,.25,.66,.02,.93l-.61,.73c.85,1.04,1.52,2.21,2,3.47l.71-.32c.18-.08,.39-.08,.57,0,.18,.08,.32,.24,.38,.43,.34,1.03,.55,2.11,.64,3.2,0,0,0,0,0,0,.02,.2-.05,.39-.18,.53-.13,.14-.32,.23-.52,.23l-3.98,.02h0"/><path class="cls-6" d="M36.12,30.12s-.02,0-.03,0c-1.58-.07-3.13-.39-4.59-.96-.22-.08-.38-.27-.44-.49-.06-.23,0-.47,.14-.65l4.95-6.05c.19-.24,.52-.33,.81-.22,1.83,.67,3.83,.47,5.48-.55,1.65-1.02,2.74-2.72,2.98-4.67,.04-.36,.35-.63,.71-.63h4.08c.2-.01,.4,.07,.53,.22,.13,.14,.2,.34,.2,.53,0,0,0,0,0,0h0s0,0,0,0,0,0,0,0c-.07,1.13-.28,2.25-.6,3.32-.06,.2-.2,.36-.39,.45-.19,.09-.4,.09-.59,0l-.73-.32c-.47,1.31-1.14,2.52-1.99,3.6l.64,.75c.24,.28,.23,.69,0,.96-1.48,1.65-3.35,2.95-5.4,3.75-.2,.08-.43,.06-.62-.05-.19-.11-.32-.3-.35-.51l-.16-.94c-1.19,.41-2.43,.64-3.68,.67l-.22,1.19c-.07,.35-.36,.59-.71,.59m5.59-1.34h0Z"/><g><path class="cls-3" d="M28.42,27.33c-1.71-1.2-3.16-2.79-4.19-4.6l-.09-.15,1.22-.52c.18-.08,.33-.23,.4-.42,.07-.19,.06-.4-.03-.58-.78-1.57-1.16-3.4-1.15-5.42v-.16s9.77-.03,9.77-.03c.35,0,.64-.25,.7-.6,.4-2.34,2.42-4.04,4.8-4.04,.1,0,.2,0,.29,0,1.59,.09,3.07,1,3.88,2.37,1.27,2.17,.71,4.92-1.3,6.4-.84,.62-1.84,.94-2.88,.94s-2.16-.37-3.02-1.05c-.13-.1-.28-.16-.44-.16-.2,0-.39,.08-.52,.23l-7.32,7.85-.11-.08Z"/><path class="cls-2" d="M39.85,10.97c.09,0,.19,0,.29,0,1.53,.09,2.97,.97,3.75,2.3,1.23,2.1,.69,4.76-1.26,6.19-.81,.6-1.78,.91-2.78,.91s-2.09-.36-2.92-1.02c-.15-.12-.35-.19-.54-.19-.24,0-.47,.1-.64,.28l-7.22,7.75c-1.69-1.19-3.12-2.76-4.14-4.55l1.05-.46c.22-.1,.4-.28,.48-.51,.08-.23,.07-.49-.04-.71-.77-1.56-1.15-3.35-1.13-5.34l9.61-.03c.43,0,.79-.31,.86-.73,.39-2.26,2.34-3.91,4.64-3.91m0-.32c-2.46,0-4.54,1.75-4.96,4.17-.05,.27-.28,.46-.55,.47l-9.61,.03h-.31s0,.31,0,.31c-.02,2.04,.38,3.89,1.16,5.49,.07,.14,.08,.31,.03,.46-.05,.15-.17,.27-.31,.33l-1.05,.46-.32,.14,.17,.31c1.04,1.83,2.51,3.44,4.23,4.65l.22,.16,.19-.2,7.22-7.75c.11-.11,.25-.18,.41-.18,.13,0,.25,.04,.35,.12,.88,.7,1.99,1.08,3.12,1.08s2.1-.34,2.97-.97c2.08-1.53,2.66-4.37,1.35-6.6-.83-1.42-2.37-2.36-4-2.45-.1,0-.2,0-.3,0h0Z"/></g><path class="cls-4" d="M33.15,13.66c-.04,.12-.16,.21-.29,.21l-5.47,.06c-.1,0-.2-.04-.26-.12-.06-.08-.09-.17-.07-.27,.25-1.07,.69-2.08,1.3-3,.07-.11,.02-.27-.11-.32l-1.63-.64c-.09-.04-.19-.12-.22-.21s-.02-.19,.04-.26c.98-1.43,2.07-2.74,3.6-3.63,.13-.07,.44-.04,.55,.06l4.68,4.55c.06,.06,.1,.14,.1,.23,0,.08-.04,.16-.1,.22-.99,.83-1.71,1.91-2.1,3.12"/></g><path d="M140.54,7.73v2.04c0,.35,.27,.63,.61,.63h4.19c.34,0,.61,.28,.61,.63v12.96c0,.35,.27,.63,.61,.63h2.69c.34,0,.61-.28,.61-.63V11.03c0-.35,.27-.63,.61-.63h4.19c.34,0,.61-.28,.61-.63v-2.04c0-.35-.27-.63-.61-.63h-13.5c-.34,0-.61,.28-.61,.63h0Z"/><path d="M65.9,7.73V15.96c0,.59-.72,.86-1.08,.4l-7.14-9.03c-.12-.15-.29-.23-.47-.23h-2.34c-.34,0-.61,.28-.61,.63V23.99c0,.35,.27,.63,.61,.63h2.64c.34,0,.61-.28,.61-.63V15.76c0-.59,.72-.86,1.08-.4l7.14,9.03c.12,.15,.29,.23,.47,.23h2.34c.34,0,.61-.28,.61-.63V7.73c0-.35-.27-.63-.61-.63h-2.64c-.34,0-.61,.28-.61,.63"/><path d="M77.65,20.73v-2.79c0-.35,.27-.63,.61-.63h6.63c.34,0,.61-.28,.61-.63v-1.92c0-.35-.27-.63-.61-.63h-6.63c-.34,0-.61-.28-.61-.63v-2.52c0-.35,.27-.63,.61-.63h7.66c.34,0,.61-.28,.61-.63v-1.99c0-.35-.27-.63-.61-.63h-11.55c-.34,0-.61,.28-.61,.63V23.98c0,.35,.27,.63,.61,.63h11.86c.34,0,.61-.28,.61-.63v-1.99c0-.35-.27-.63-.61-.63h-7.98c-.34,0-.61-.28-.61-.63h0Z"/><path d="M104.25,23.62l-5.35-7.69c-.15-.22-.15-.52,0-.74l4.94-7.09c.29-.42,0-1-.49-1h-2.72c-.2,0-.38,.1-.5,.27l-3.15,4.65c-.24,.36-.75,.36-.99,0l-3.19-4.66c-.11-.17-.3-.27-.5-.27h-2.92c-.49,0-.78,.58-.5,1l4.97,7.24c.15,.22,.15,.52,0,.73l-5.26,7.55c-.29,.42,0,1,.49,1h2.95c.2,0,.39-.1,.5-.27l3.33-5.06c.24-.37,.76-.37,1,0l3.39,5.07c.11,.17,.3,.27,.5,.27h3.01c.5,0,.79-.58,.49-1h0Z"/><path d="M106.49,23.98V7.72c0-.35,.27-.63,.61-.63h2.72c.34,0,.61,.28,.61,.63V23.98c0,.35-.27,.63-.61,.63h-2.72c-.34,0-.61-.28-.61-.63"/><path d="M114.4,23.98V7.72c0-.35,.27-.63,.61-.63h2.72c.34,0,.61,.28,.61,.63V23.98c0,.35-.27,.63-.61,.63h-2.72c-.34,0-.61-.28-.61-.63"/><path d="M130.52,24.92c-1.34,0-2.57-.23-3.69-.68-1.12-.45-2.11-1.08-2.94-1.9-.84-.82-1.48-1.78-1.94-2.88-.46-1.1-.69-2.3-.69-3.61s.23-2.52,.69-3.62c.46-1.09,1.11-2.05,1.94-2.87,.84-.82,1.82-1.45,2.93-1.9,1.12-.45,2.35-.68,3.68-.68s2.56,.22,3.68,.66c1.12,.44,2.1,1.07,2.93,1.89,.84,.82,1.48,1.78,1.94,2.88,.46,1.1,.69,2.31,.69,3.63s-.23,2.51-.69,3.62c-.46,1.11-1.11,2.07-1.94,2.89s-1.82,1.45-2.93,1.89c-1.12,.44-2.34,.66-3.66,.66m-.03-3.43c.76,0,1.45-.14,2.09-.41,.64-.27,1.19-.67,1.68-1.18,.48-.51,.86-1.1,1.12-1.78,.27-.68,.4-1.43,.4-2.26s-.13-1.59-.4-2.26c-.27-.68-.64-1.27-1.12-1.78-.48-.51-1.04-.9-1.68-1.18-.64-.27-1.33-.41-2.09-.41s-1.46,.14-2.1,.41c-.64,.27-1.2,.67-1.68,1.18-.47,.51-.84,1.1-1.11,1.78-.27,.68-.4,1.43-.4,2.26s.13,1.59,.4,2.26c.27,.68,.64,1.27,1.11,1.78,.47,.51,1.03,.9,1.68,1.18,.64,.27,1.34,.41,2.1,.41"/></svg>